<svg width="20" height="20" viewBox="0 0 20 20" fill="none" xmlns="http://www.w3.org/2000/svg">
<path d="M9.99999 18.9584C5.05832 18.9584 1.04166 14.9417 1.04166 10C1.04166 5.05835 5.05832 1.04169 9.99999 1.04169C14.9417 1.04169 18.9583 5.05835 18.9583 10C18.9583 14.9417 14.9417 18.9584 9.99999 18.9584ZM9.99999 2.29169C5.74999 2.29169 2.29166 5.75002 2.29166 10C2.29166 14.25 5.74999 17.7084 9.99999 17.7084C14.25 17.7084 17.7083 14.25 17.7083 10C17.7083 5.75002 14.25 2.29169 9.99999 2.29169Z" fill="#212121"/>
<path d="M10 11.4584C9.65833 11.4584 9.375 11.175 9.375 10.8334V6.66669C9.375 6.32502 9.65833 6.04169 10 6.04169C10.3417 6.04169 10.625 6.32502 10.625 6.66669V10.8334C10.625 11.175 10.3417 11.4584 10 11.4584Z" fill="#212121"/>
<path d="M9.99999 14.1667C9.89166 14.1667 9.78332 14.1417 9.68332 14.1C9.58332 14.0583 9.49166 14 9.40832 13.925C9.33332 13.8417 9.27499 13.7583 9.23332 13.65C9.19166 13.55 9.16666 13.4417 9.16666 13.3333C9.16666 13.225 9.19166 13.1167 9.23332 13.0167C9.27499 12.9167 9.33332 12.825 9.40832 12.7417C9.49166 12.6667 9.58332 12.6083 9.68332 12.5667C9.88332 12.4833 10.1167 12.4833 10.3167 12.5667C10.4167 12.6083 10.5083 12.6667 10.5917 12.7417C10.6667 12.825 10.725 12.9167 10.7667 13.0167C10.8083 13.1167 10.8333 13.225 10.8333 13.3333C10.8333 13.4417 10.8083 13.55 10.7667 13.65C10.725 13.7583 10.6667 13.8417 10.5917 13.925C10.5083 14 10.4167 14.0583 10.3167 14.1C10.2167 14.1417 10.1083 14.1667 9.99999 14.1667Z" fill="#212121"/>
</svg>
