<svg width="21" height="21" viewBox="0 0 21 21" fill="none" xmlns="http://www.w3.org/2000/svg">
<path d="M14.4954 15.2963L19.3334 10.4583M19.3334 10.4583L14.4954 5.62037M19.3334 10.4583H7.72224M10.625 15.2963C10.625 16.1962 10.625 16.6461 10.5261 17.0152C10.2577 18.0169 9.47523 18.7994 8.47354 19.0678C8.1044 19.1667 7.65448 19.1667 6.75465 19.1667H6.27085C4.91833 19.1667 4.24206 19.1667 3.70862 18.9457C2.99736 18.6511 2.43226 18.086 2.13765 17.3748C1.91669 16.8413 1.91669 16.165 1.91669 14.8125V6.10417C1.91669 4.75164 1.91669 4.07538 2.13765 3.54193C2.43226 2.83068 2.99736 2.26557 3.70862 1.97096C4.24206 1.75 4.91833 1.75 6.27085 1.75H6.75465C7.65448 1.75 8.1044 1.75 8.47354 1.84891C9.47523 2.11732 10.2577 2.89976 10.5261 3.90148C10.625 4.27062 10.625 4.72054 10.625 5.62037" stroke="#09A4BB" stroke-width="2" stroke-linecap="round" stroke-linejoin="round"/>
</svg>
