<svg width="20" height="20" viewBox="0 0 20 20" fill="none" xmlns="http://www.w3.org/2000/svg">
<path d="M7.90017 17.2416C7.48351 17.2416 7.19184 17.1 7.01684 16.9666C6.68351 16.725 6.16684 16.1 6.49184 14.7L6.96682 12.65C7.00849 12.475 6.91683 12.1583 6.79183 12.025L5.1335 10.3666C4.2585 9.49164 4.33349 8.7333 4.45016 8.3583C4.56683 7.9833 4.95016 7.32496 6.16683 7.11663L8.29184 6.76663C8.45017 6.74163 8.7085 6.54997 8.77516 6.4083L9.95017 4.0583C10.5168 2.92497 11.2668 2.7583 11.6668 2.7583C12.0668 2.7583 12.8168 2.92497 13.3835 4.0583L14.5585 6.4083C14.6335 6.54997 14.8835 6.74163 15.0418 6.76663L17.1668 7.11663C18.3835 7.31663 18.7668 7.9833 18.8835 8.3583C19.0002 8.7333 19.0752 9.49164 18.2002 10.3666L16.5418 12.025C16.4168 12.15 16.3252 12.475 16.3668 12.65L16.8418 14.7C17.1668 16.1083 16.6502 16.725 16.3168 16.9666C15.9835 17.2083 15.2418 17.5166 13.9918 16.775L12.0002 15.5916C11.8335 15.4916 11.4835 15.4916 11.3168 15.5916L9.32517 16.775C8.75017 17.125 8.26684 17.2416 7.90017 17.2416ZM11.6668 4.0083C11.5335 4.0083 11.2918 4.16663 11.0668 4.61663L9.89183 6.96664C9.64183 7.47497 9.05017 7.90831 8.49183 7.99997L6.36684 8.34997C5.89184 8.43331 5.67517 8.60831 5.63351 8.74164C5.59184 8.87497 5.66682 9.14164 6.00849 9.48331L7.66684 11.1416C8.09184 11.5666 8.31684 12.3416 8.1835 12.925L7.7085 14.975C7.56683 15.5666 7.65849 15.8833 7.75015 15.9583C7.84182 16.025 8.17516 16.0166 8.69183 15.7L10.6918 14.5166C11.2502 14.1833 12.0918 14.1833 12.6418 14.5166L14.6335 15.7C15.1585 16.0083 15.4918 16.025 15.5835 15.9583C15.6752 15.8916 15.7668 15.575 15.6252 14.975L15.1502 12.925C15.0168 12.3333 15.2335 11.5666 15.6668 11.1416L17.3252 9.48331C17.6668 9.14164 17.7418 8.86664 17.7002 8.74164C17.6585 8.61664 17.4418 8.43331 16.9668 8.34997L14.8418 7.99997C14.2835 7.90831 13.6918 7.47497 13.4418 6.96664L12.2668 4.61663C12.0418 4.16663 11.8002 4.0083 11.6668 4.0083Z" fill="#212121"/>
<path d="M6.66666 4.79169H1.66666C1.32499 4.79169 1.04166 4.50835 1.04166 4.16669C1.04166 3.82502 1.32499 3.54169 1.66666 3.54169H6.66666C7.00832 3.54169 7.29166 3.82502 7.29166 4.16669C7.29166 4.50835 7.00832 4.79169 6.66666 4.79169Z" fill="#212121"/>
<path d="M4.16666 16.4583H1.66666C1.32499 16.4583 1.04166 16.175 1.04166 15.8333C1.04166 15.4916 1.32499 15.2083 1.66666 15.2083H4.16666C4.50832 15.2083 4.79166 15.4916 4.79166 15.8333C4.79166 16.175 4.50832 16.4583 4.16666 16.4583Z" fill="#212121"/>
<path d="M2.49999 10.625H1.66666C1.32499 10.625 1.04166 10.3417 1.04166 10C1.04166 9.65833 1.32499 9.375 1.66666 9.375H2.49999C2.84166 9.375 3.12499 9.65833 3.12499 10C3.12499 10.3417 2.84166 10.625 2.49999 10.625Z" fill="#212121"/>
</svg>
